<?xml version="1.0" encoding="UTF-8" standalone="no"?>
<svg
   xmlns:dc="http://purl.org/dc/elements/1.1/"
   xmlns:cc="http://creativecommons.org/ns#"
   xmlns:rdf="http://www.w3.org/1999/02/22-rdf-syntax-ns#"
   xmlns:svg="http://www.w3.org/2000/svg"
   xmlns="http://www.w3.org/2000/svg"
   xmlns:sodipodi="http://sodipodi.sourceforge.net/DTD/sodipodi-0.dtd"
   xmlns:inkscape="http://www.inkscape.org/namespaces/inkscape"
   id="layer1"
   viewBox="0 0 75 75"
   width="400pt"
   height="400pt"
   version="1.0"
   xml:space="preserve"
   inkscape:version="0.48.4 r9939"
   sodipodi:docname="story_svg_black_speaker_icon_on.svg"><defs
   id="defs3025" /><sodipodi:namedview
   pagecolor="#000000"
   bordercolor="#666666"
   borderopacity="1"
   objecttolerance="10"
   gridtolerance="10"
   guidetolerance="10"
   inkscape:pageopacity="0"
   inkscape:pageshadow="2"
   inkscape:window-width="1680"
   inkscape:window-height="988"
   id="namedview3023"
   showgrid="false"
   inkscape:zoom="1.538"
   inkscape:cx="148.56957"
   inkscape:cy="250"
   inkscape:window-x="-8"
   inkscape:window-y="-8"
   inkscape:window-maximized="1"
   inkscape:current-layer="g1" /><metadata
   id="metadata1"><rdf:RDF><cc:Work
       rdf:about=""><dc:format>image/svg+xml</dc:format><dc:type
         rdf:resource="http://purl.org/dc/dcmitype/StillImage" /></cc:Work></rdf:RDF></metadata><g
   id="g1"
   transform="matrix(-1,0,0,1,76.128,0)"><polygon
   id="polygon1"
   style="fill:#ffffff;stroke:#ffffff;stroke-width:5;stroke-linejoin:round;fill-opacity:1;stroke-opacity:1"
   points="22.235,28.606 6,28.606 6,47.699 21.989,47.699 39.389,62.75 39.389,13.769 39.389,13.769 " /><path
   id="path1"
   style="fill:none;stroke:#ffffff;stroke-width:5;stroke-linecap:round;stroke-opacity:1"
   d="m 48.128,49.03 c 1.929,-3.096 3.062,-6.739 3.062,-10.653 0,-3.978 -1.164,-7.674 -3.147,-10.8"
   inkscape:connector-curvature="0" />
<path
   id="path2"
   style="fill:none;stroke:#ffffff;stroke-width:5;stroke-linecap:round;stroke-opacity:1"
   d="m 55.082,20.537 c 3.695,4.986 5.884,11.157 5.884,17.84 0,6.621 -2.151,12.738 -5.788,17.699"
   inkscape:connector-curvature="0" />
<path
   id="path3021"
   style="fill:none;stroke:#ffffff;stroke-width:5;stroke-linecap:round;stroke-opacity:1"
   d="m 61.71,62.611 c 5.267,-6.666 8.418,-15.08 8.418,-24.233 0,-9.217 -3.192,-17.682 -8.519,-24.368"
   inkscape:connector-curvature="0" />
</g>
</svg>